<svg xmlns="http://www.w3.org/2000/svg" viewBox="0 0 1220.63 1032.85"><defs><style>.a{fill:#f6e9d5;}.b{fill:#04ebfd;}</style></defs><title>juanito</title><path class="a" d="M650.62,793.76c-4.18-4.89-8.39-9.77-12.55-14.68-18.93-22.32-29.5-48.05-31.47-77.28-.46-6.88-11-15.57-17.87-14.31-1.69.31-3,2.49-4.64,3.38-2,1.06-4.79,2.82-6.25,2.15s-3-4.08-2.68-6c.69-4.66-.62-7.44-4.69-9.84-4.42-2.61-7.66-3.54-10.64,1.88-.73,1.32-3.91,2.3-5.48,1.84s-2.65-2.87-3.5-4.63a36,36,0,0,1-1.73-5.8,46.57,46.57,0,0,0-5.83,3.11q-12.12,8.77-24.07,17.77a304.17,304.17,0,0,0-50,48,325.48,325.48,0,0,0-40.77,60.9,308.77,308.77,0,0,0-22.76,57c-9,32.13-12.38,65-11.48,98.4.62,22.82.29,45.66.35,68.49,0,1.31.14,3.06-.6,3.86-1.76,1.91-4.08,4.72-6,4.61-1.78-.09-4.52-3.4-4.82-5.57-.76-5.39-.47-10.95-.43-16.44.21-28.33.15-56.66.8-85,.54-23.42,4.88-46.35,11.12-68.88a319,319,0,0,1,37.55-84.61c18.79-30,41.21-56.9,68.78-79.23,12.66-10.25,25.91-19.76,39-29.52,2.34-1.75,3.77-3.57,1.56-6.12-2.07-2.4-4.41-5-8-2.27-1.18.9-2,2.72-3.23,3-2.17.52-5.07,1-6.67,0-1.32-.85-2.35-4.82-1.53-5.87,5.59-7.15,2-11.7-3.22-16.9s-9.68-11.42-14.35-17.29c-3.93-4.94-5.56-5.1-9.71-.49-.56.62-1.1,1.26-1.69,1.84-2.47,2.42-5.35,4.08-8.32,1.31s-1.77-6.11.63-8.84c1.87-2.12,3.93-4.08,5.93-6.08,2.45-2.45,2.56-4.89,1-8.1q-6.67-13.65-12.65-27.64c-2.32-5.41-4.35-6.2-9.36-2.79-1.37.93-2.95,2.48-4.29,2.34-2.54-.26-5.54-1-7.2-2.63-.81-.81.26-4.87,1.67-6.26,2.43-2.39,5.76-3.87,8.75-5.67,4.86-2.94,5.23-5.59,2-12.35-2.2-4.64-5.36-4.14-9.07-2.2-3.49,1.82-6.69,1.38-8.42-2.35-1.84-4,.69-6.22,4-7.84,3.47-1.71,8.51-2.53,10-5.29,1.6-2.93-.35-7.68-.39-11.65q-.19-20-.1-40c0-7.06-1.06-8.7-7.86-10.59-27.43-7.6-46.37-25.09-56.9-51.08-3.53-8.72-4.64-18.74-5.23-28.27-.85-13.77-.08-27.64-.28-41.47a35.06,35.06,0,0,1,11.39-27.19c3.63-3.44,2.9-5.34-1.7-8.33-16.58-10.79-34-20.35-48.46-34.2a153.83,153.83,0,0,1-38.88-59.7c-7-19.54-10.41-39.59-9.14-60.3a151.77,151.77,0,0,1,8.9-42.88c11.7-32.13,30.58-59.06,58.32-79.23C411.28,5.27,449.44-3.91,490.85,1.5c23.1,3,44.26,11.84,63.81,24.6s39.51,25.37,59.3,38c6.88,4.39,13.68,8.95,20.83,12.84a14.15,14.15,0,0,0,9,1.27c29.14-6.25,58.18-5.85,87.32,0a17.08,17.08,0,0,0,10.79-1.72c13.54-7.56,26.38-6.84,38,3.08,3.94,3.36,6.85,8.54,8.8,13.46,1.72,4.33,3.94,7.52,7.83,9.81a231.88,231.88,0,0,1,52.25,41.49A223.56,223.56,0,0,1,884.15,195c8,15.65,14.36,32,18,49.1,4.22,20,7.81,40.36,5.21,61-1.7,13.5-3.68,27.12-12.4,38.52-2.55,3.34-.94,6,3.44,6.18,3,.12,6,0,9-.15,21.92-.76,42.35,18,45.8,41,.22,1.46.6,3.33-.07,4.4-1.2,1.92-3.08,4.6-4.8,4.69-2,.11-5-1.69-6.14-3.53-1.31-2.07-1.27-5.1-1.47-7.74-1.24-15.78-17.86-27.64-31.36-27.63-6.82,0-13.64-.24-20.46-.4a10,10,0,0,0-10.47,9.26c-.27,3.48-.26,7-.43,10.47-.21,4.51,2.94,6,6.42,7.08a67.26,67.26,0,0,1,36.23,26.9c13.6,19.93,16.65,41.28,7,64a66.7,66.7,0,0,1-31,34c-3.92,2.07-8.43,3-12.53,4.73-1.43.62-2.44,2.22-3.65,3.38,1.31.83,2.54,2.2,3.94,2.4,25.37,3.62,50.8,6.89,76.15,10.67,29.75,4.44,54.25,18.17,73.09,41.92,15.17,19.12,22.69,40.78,23.09,65.06.07,4.65-.42,9.42.51,13.89.64,3.08,2.63,6.77,5.17,8.42a374.7,374.7,0,0,1,55.4,44.09c29.69,28.59,53.83,61.16,71.51,98.5,10.16,21.46,18.26,43.63,23.33,66.79,4.82,22,7.87,44.26,7.85,66.86,0,28.16.1,56.33.17,84.49,0,.33,0,.67,0,1-.18,3.95-.34,8-5.56,8.55-3.77.36-6.11-3.06-6.1-8.64,0-28,.19-56,.12-84a313,313,0,0,0-8.18-69.26c-8.86-38.73-25-74-47.56-106.5a336.28,336.28,0,0,0-81-82,360.65,360.65,0,0,0-54.87-32.64A342,342,0,0,0,945,624.21c-5.84-1.32-8.77.7-9.66,6.69a49.62,49.62,0,0,0-.24,7c-.11,23.16.43,46.35-.48,69.48-1.06,26.86-11.38,50.57-28.86,70.78-8,9.25-17.54,17.2-26.66,25.44-2.78,2.51-6.45,4-9.71,6-3.2-2.17-3.92-5.14-2.5-8.59,1-2.39,2.27-4.67,3.42-7,8.41-1.25,13.55-7.67,18.94-13,24.91-24.7,35.72-55.08,35.12-89.92q-.48-27.48-.08-55c.4-25.31,23.06-49.62,48.12-52.11a33.84,33.84,0,0,1,3.49-.18c3.93,0,7.85.74,7.94,5.54s-3.87,6.22-7.65,6.12C965,595.21,956,600.15,947.75,607a6.33,6.33,0,0,0-2.3,4.41c.05,1,2.27,2.27,3.71,2.59,30.32,6.67,58.4,19.22,86.13,32.7,2.08,1,3.93,2.52,6,3.58,3.08,1.57,5.27.39,4.95-2.8-1-10.22-.92-20.81-3.68-30.57-10.5-37.15-34.42-61.61-72.45-70.11-20.74-4.63-42-6.79-63.08-10.08-8.22-1.29-16.45-2.57-24.65-3.95-4.49-.75-6.67.93-6.77,5.42-.92,40.78-1.37,81.58-2.95,122.33-1.17,30.27-13.32,55.94-35.69,76.76-13.08,12.17-29.28,18.65-44.79,26.68-26.67,13.8-43.16,36-48.73,65.71-1.19,6.34-1.31,12.88-1.71,19.35-.32,5.23-2.43,8.33-6.07,8.25s-6.24-3.45-5.94-8.36c.33-5.47,1-10.93,1.79-16.36.88-6.27-.35-7.78-6.5-8.29-16.43-1.37-32.08-5.5-46.66-13.39a32,32,0,0,0-5.61-1.83ZM593.06,399.67h.56c0,9.16,0,18.33,0,27.49,0,6.78-2.1,9-8.92,9-7.66-.06-15.33-.25-23-.2s-15,4.83-17,12.26c-1.13,4.26-.54,9.13,0,13.64,1.29,11.46,12.65,21.78,24.12,22.09,7.16.19,14.33,0,21.49.1,3.85.06,7.21,1.4,7.17,5.88s-3.42,5.59-7.32,5.58c-4.82,0-9.66.26-14.47-.05-5.28-.34-11-.08-15.7-2-17.8-7.23-29.9-19.11-29.3-40.08,0-1.12-.75-2.87-1.62-3.23s-2.49.45-3.39,1.22c-12.16,10.42-26.55,14.44-42.19,14.8-3.36.08-5.53.93-5.47,4.73.22,14.65.49,29.31.56,44,0,4.66,1.2,8.38,5.25,11.15,2.89,2,3.27,4.79,1.24,7.85C480.3,541,480.91,543,488.81,547c3.94,2,5.38,5.42,2.43,7.87-5.43,4.51-2.83,8.7-.73,13.24,1.49,3.21,3.7,3.57,6.44,1.68,1.51-1,2.83-2.34,4.35-3.34,3-2,6.1-2.27,8.48.77,2.51,3.21.93,6-1.8,8.19a45.4,45.4,0,0,1-6.23,4.16c-4.16,2.31-4.83,5.58-2,9.06,1.63,2,4.48,3.05,6.46,4.87,1.77,1.62,4.74,4.14,4.38,5.53-1.68,6.46,1.84,10.94,4.8,15.69,2.77,4.44,5.73,4.42,8.94.21,1.51-2,2.74-4.64,4.77-5.62s5.6-1.37,7.47-.27c1.19.7,1.38,4.93.5,6.9-1.38,3.11-4.37,5.47-6,8.49-1.07,1.94-1,4.51-1.43,6.8,2.12.27,4.32,1,6.33.71,5-.83,7.43.87,6.42,5.68-.91,4.32.64,7,3.9,9.37a40.22,40.22,0,0,1,4.81,4.35c4.1,4.16,5.39,4.16,8.91-.55,2-2.72,4.38-4.43,7.58-2.34,3.39,2.2,3.67,5.21,1.47,8.64-.74,1.16-1.6,3.53-1.13,4a51.53,51.53,0,0,0,10,7.71c.59.33,3.77-3.21,5.15-5.35,1.86-2.88,3.7-5.47,7.5-4,4,1.51,4,4.9,3.19,8.4a7.07,7.07,0,0,1-.34.94c-2.41,6.41-2.3,7.15,4,9.63,7.57,3,15.35,5.39,23,8.19,5.85,2.15,7,1.45,8.47-4.7.39-1.64,1.95-4,3.29-4.2a7.27,7.27,0,0,1,5.64,1.93c1.35,1.39,1.91,3.83,2.23,5.9.64,4.07,2.8,6.32,6.85,6.64,3.82.31,7.75,0,11.44.83a16.69,16.69,0,0,1,7.24,4.15c1.75,1.64,2.8,4.12,3.88,6.36,11.86,24.55,31.55,40.41,57,48.36,29.77,9.29,59.3,5.38,86-9.71,30.51-17.22,46.69-44.88,48.87-80,1.24-20.1,1.48-40.26,2.15-60.39q1.24-37.44,2.45-74.88c.18-5.57-1.66-7.86-7.24-7.7-11.75.33-21.71-4.36-31.21-10.5-1.38-.89-3.11-1.94-3.62-3.31-.67-1.81-1.09-4.58-.15-5.87s3.71-1.73,5.63-1.64c1.46.07,2.87,1.52,4.26,2.42a55,55,0,0,0,39.17,8.59c33.94-5.19,55.27-36,47.49-69.56-5-21.35-18.66-35.73-40.22-41.58-18.44-5-35.26-1.1-50.48,10.24a15.63,15.63,0,0,1-13.63,3c-5.51-1.29-11.11-2.2-16.69-3.1-7.27-1.17-9.67-4-10.07-11.18-.53-9.81-1.3-19.61-2.18-29.4-.17-1.87-1.07-5.07-2-5.23-4.79-.78-9.87-1.61-14.54-.74-3.91.73-2.58,5.2-2.4,8.23,1.64,27.56-4.84,52.35-25.33,72-11,10.54-23.34,19.09-38.6,22.82-18.63,4.56-36.25,2.43-53.15-6.47-30.71-16.16-49-40.27-49-76.19,0-3.5.12-7,.1-10.5,0-3.26-1.34-5.68-4.92-5.59s-4.17,2.63-4.16,5.62C593.09,380.68,593.06,390.17,593.06,399.67ZM729.78,153.43l.67-1.77c-1.76-1.38-3.42-2.91-5.29-4.1-8.83-5.64-17.73-11.17-26.58-16.77Q668.82,112,639.07,93.13c-27-17.15-53.91-34.4-80.93-51.51-13.63-8.63-27-18.08-42.78-22.27-13.31-3.53-26.91-7.64-40.48-8A156,156,0,0,0,431,16.7c-33.65,8.93-60.66,28.11-80.6,57-11.27,16.35-20.69,33.74-24.81,53.08-5.61,26.37-5.38,52.84,3.59,78.85,8.33,24.17,21,45.72,41,61.52,16.94,13.35,35.63,24.49,53.7,36.37,2,1.33,5.08,1.5,7.66,1.54,10.49.15,21-.14,31.49.1,7.13.16,8.83-1.16,11.11-7.94,4-12,7.54-24.3,13.08-35.58a207.83,207.83,0,0,1,42.06-57.9c26.23-25.46,56.91-42.57,92-52,22.08-6,44.67-7.07,67.45-6a119,119,0,0,1,36.13,7.06A22.56,22.56,0,0,0,729.78,153.43ZM685,304.87c15.83,0,31.66,0,47.49,0a34.5,34.5,0,0,1,8.88,1c16.5,4.54,27.18,19.71,26.38,37.27-.14,3.17.53,5.65,4,6.5,5.88,1.46,12.3.38,13.37-2.45a10.49,10.49,0,0,0,.2-4.38c-.28-3.48-.8-6.93-1.05-10.41-.78-10.79-1.54-21.59-2.16-32.39-.17-3-.51-6.18.39-8.9,7.7-23.21,14.93-46.62,23.9-69.34,4.2-10.63,1.77-10.73-4.66-16.43-.62-.55-1.24-1.11-1.87-1.66-28.67-24.91-61.84-40.48-99.4-45.41-28.74-3.77-57.3-2.23-85.44,6.55-27.07,8.45-50.75,22.28-72.25,40.37-15.34,12.9-26.35,29.44-38.09,45.36-2.54,3.44-1,6.45,3.49,6.86,7.61.71,15.24,1.3,22.87,1.82,5.86.4,7.88,2.88,7.55,8.66a146.12,146.12,0,0,0-.16,17.95c.58,8.76-1.89,11-10.57,10-12.22-1.48-24.5-2.49-36.77-3.51-3.64-.31-7.86,5-7.37,9.1s3.86,3.83,6.89,3.81c13.49-.11,27-.43,40.47-.14a26.26,26.26,0,0,1,11.4,3.14c13.6,7.29,20.77,18.67,20.75,34.39,0,13,.1,12.91,13.17,12.41,4.3-.16,5.91-2.26,5.91-6.28,0-10.66.27-21.32-.07-32a18.24,18.24,0,0,0-3-9.22c-5.52-8.11-11.62-15.83-17.39-23.77-1.36-1.87-2.88-3.93-3.27-6.1a7,7,0,0,1,1.63-5.6c1-.89,4-.66,5.34.21A21.72,21.72,0,0,1,571,278c6.38,8.75,12.88,17.42,18.73,26.51A23.33,23.33,0,0,1,593.33,316c.24,11-.36,22-.64,32.95-.08,3.11.54,5.93,4.29,6.06s5.26-2.34,5.22-5.85c0-2.83,0-5.68-.3-8.49-2.16-19.39,19.4-37,35.6-36C653.28,305.61,669.15,304.88,685,304.87Zm.09,11.09v.18c-15.66,0-31.33.34-47-.1-13-.37-25.59,9.47-25,25,.59,14.64.1,29.32.21,44,.19,25.52,12.14,45.07,33.1,58.1,25.39,15.79,52.46,13,77.56-.48,17.1-9.18,27.6-25.19,31.13-45,3.42-19.2,2.18-38.56,1.77-57.83-.31-14.38-10.83-23.93-23.84-23.88C717.06,316,701.07,316,685.08,316Zm-2.86-230.1c-7.49,0-15-.11-22.48.09-1.43,0-2.82,1.28-4.23,2,.88,1.45,1.46,3.29,2.72,4.25,2.37,1.8,5.19,3,7.71,4.6q32.25,20.51,64.47,41.07c22.34,14.2,44.77,28.26,67,42.57,27.06,17.38,48,40.27,59.8,70.42,4.95,12.63,7.7,26.1,11.67,39.13,5.24,17.15,8.7,34.52,8,52.57,0,1.29,1,2.61,1.52,3.92,1.33-.75,3.22-1.18,3.89-2.32,2.77-4.72,5.73-9.45,7.61-14.55,5.89-16,7.62-32.41,6.37-49.57-2.36-32.16-10.89-62.36-27-90.13-21.23-36.65-50.53-65.19-89.26-83.1-13.4-6.2-27.18-12.23-41.42-15.77C720.31,86.44,701.41,83.39,682.22,85.87Zm47.35,728.42c4.71.54,7-2.42,8.83-6,2.32-4.6,4.06-9.6,7-13.75,5.35-7.54,11.46-14.54,17.13-21.87,1-1.33,1.43-3.15,2.12-4.75-1.63-.5-3.32-1.55-4.89-1.41a89.72,89.72,0,0,1-41.09-6.09c-26-10.12-45.87-27.28-59.07-51.9-2.48-4.62-6.42-5.24-10.82-5.75-4.2-.49-5.06,2.66-6.78,5.35-1.11,1.75-3.47,3.89-5.12,3.78s-3.57-2.53-4.81-4.33c-1-1.43-1-3.5-1.65-5.19-1.2-3-7-5.93-10.11-4.45a6.48,6.48,0,0,0-2.81,5.29c3.61,31,15.4,57.89,38.65,79.51C677,802.08,702,811,729.57,814.28ZM467.5,398.18h-.81c0-15.81.25-31.63-.21-47.42-.09-3.19-2-7.53-4.5-9.25-11.37-7.82-23.26-14.88-34.94-22.26a6.66,6.66,0,0,0-8.32.49c-6.49,5.06-10.6,11.58-10.7,19.95-.18,15.32-.42,30.65.07,46a68.78,68.78,0,0,0,10.16,34.06c9.93,16.23,24.42,26.48,42.25,32.42,4.18,1.39,7-.69,7-5.51Q467.53,422.4,467.5,398.18Zm83.44-35.72h.61c0-8,.21-16,0-24-.42-12.76-9.95-22.29-22.68-22.51-14.15-.25-28.31-.08-42.47-.1-3.55,0-5.77,1.67-6.11,5.22-.75,7.79-1.82,15.58-1.9,23.39-.37,34.64-.42,69.29-.66,103.93,0,4.23,1.83,5.92,5.82,5.14,6-1.18,12.39-1.72,18-4.06,9.29-3.91,18.12-8.95,27-13.76,1.1-.59,2.16-2.92,1.83-4s-2.39-1.91-3.83-2.24c-1.2-.27-2.59.5-3.91.54-8,.24-16,.69-23.92.45-3.55-.11-7.14-1.88-6.92-6.37.2-4.05,3.55-5,6.87-5,11.66,0,23.34-.13,35,.59,5.63.35,9.32-1.51,11-6.35,2.5-7,5.3-14.14,6.08-21.42C551.73,382.18,550.94,372.28,550.94,362.46Zm31.54,32.79H582c0-1,0-2,0-3,0-4.65-.06-9.31-.06-14,0-12.44,0-12.44-12.4-12.37-5.68,0-6.82,1.17-6.65,6.67.51,16.77,0,33.28-10.25,47.78-1.92,2.72-.42,4.78,2.93,4.76l19.91-.18c5.24,0,7-1.68,7-6.78C582.51,410.53,582.49,402.89,582.49,395.25ZM446.78,316.49l-.25,1.74c4.82,3.12,9.54,6.4,14.49,9.29,1.76,1,4.08,1.1,6.14,1.61.73-3.3,1.93-6.6,1.93-9.89,0-1.21-2.76-3.26-4.44-3.46a105.46,105.46,0,0,0-13.89-.33A16.8,16.8,0,0,0,446.78,316.49Z"/><path class="b" d="M175.67,343.34c47,1.25,83,12.7,114.87,36,31.07,22.75,53.39,52.26,65.41,89.09,2.57,7.88,3.94,16.15,6.47,24,1.1,3.44,3,7.46,5.74,9.41,19.1,13.36,38.52,26.27,57.89,39.24,1.91,1.28,4.68,1.55,6.16,3.12a11.74,11.74,0,0,1,3,6.77c.07,1-2.94,2.79-4.79,3.24-19.37,4.69-38.62,10.16-58.24,13.35-10.67,1.73-13.65,7.49-16.1,16.23-5.14,18.34-14.45,34.75-25.78,49.89-21.11,28.21-47.76,49.45-80.72,62.5a179.69,179.69,0,0,1-82.28,12C123.47,704.5,85.89,686.32,54.48,656c-22-21.24-37.43-47-46.41-76.5a178.54,178.54,0,0,1-3.73-92.21A182.25,182.25,0,0,1,34.1,420.8a180.18,180.18,0,0,1,49.65-47.22c15.93-10.32,33-18.43,51.22-23.14C150.71,346.37,166.75,342.72,175.67,343.34Zm5.92,13.4c-27-.25-45.68,4.2-67.72,14.07C70.26,390.36,39.57,422.62,23,467.9a170.72,170.72,0,0,0-9.76,72.56A168.32,168.32,0,0,0,26.66,595C37,618.85,52.53,639,72.35,656c31,26.51,67.31,39.22,107.64,40.51a163.44,163.44,0,0,0,65.4-11.75c36-14.15,63.68-38,83.87-70.89,9.18-15,14.84-31.22,19.47-47.93,1.32-4.74,4.22-6.73,8.74-7.6,5.37-1,10.66-2.48,16-3.8,9.35-2.32,18.71-4.59,28-7.1,2-.55,3.81-2,5.71-3-1.39-1.48-2.55-3.29-4.19-4.4-15.57-10.56-31.23-21-46.84-31.47a12.59,12.59,0,0,1-5.85-9.93,79.36,79.36,0,0,0-2.16-14.28c-8.43-30.41-22.43-57.72-46.26-79-10.13-9.06-20.44-18.34-32-25.25C243.67,364.39,215,356.38,181.59,356.74Z"/><path class="b" d="M650.62,793.76,672.75,809q0,41.23,0,82.47c0,23.16.18,46.33-.06,69.49a24.55,24.55,0,0,1-3,11.73,9.13,9.13,0,0,1-11.32,4.06c-4.73-1.62-8.87-7.19-8.78-12.25.17-9.66.82-19.31.85-29q.17-51.49,0-103c0-11.3-.41-22.61-.54-33.91A29.51,29.51,0,0,1,650.62,793.76Z"/><path class="b" d="M870.36,794c-1.15,2.33-2.43,4.6-3.42,7-1.42,3.45-.7,6.41,2.5,8.59.1,10.78.22,21.57.29,32.35.26,39.63.57,79.26.65,118.89a22.24,22.24,0,0,1-2.5,9.93c-2.51,4.82-7.62,7-11.61,5.82a11.48,11.48,0,0,1-8.35-11.18c-.15-10.32,0-20.65,0-31q0-54,.06-107.91a51,51,0,0,0-.78-6.36,17,17,0,0,1,1.67-2.25c4.29-4.16,3.63-8.32-1.83-11.16.14-5.8.25-11.59.44-17.39.08-2.48-.07-5.05.55-7.41,2.21-8.48,11.61-11.14,17.84-5,2.42,2.4,4.11,5.54,6.11,8.33,0,.47,0,1,0,1.44Z"/><path class="a" d="M847,806.76c5.46,2.84,6.12,7,1.83,11.16a17,17,0,0,0-1.67,2.25,78.32,78.32,0,0,1-9,2.46c-10,1.55-20.07,2.86-30.12,4.21a9.13,9.13,0,0,1-3-.13c-3.23-.66-5.65-2.29-5.65-5.93s2.67-4.88,5.65-5.16c5.79-.55,11.77,0,17.37-1.32C830.77,812.41,838.84,809.34,847,806.76Z"/><path class="a" d="M871.93,786.77c0-.49,0-1,0-1.44l-1.65-2.71c-.54,1.41-1.42,2.8-1.48,4.23,0,.92,1.14,1.9,1.77,2.85Z"/><path class="a" d="M599.39,569.7c-19.47,0-38.95,0-58.42,0-1.78,0-4.12,0-5.21-1.09-1.7-1.63-3.59-4.23-3.41-6.25.12-1.43,3.43-3.49,5.47-3.69,8.52-.82,8.54-.6,11.3-8.59,3.88-11.22,16.4-19.83,29.33-20.79a89.83,89.83,0,0,1,39.62,6,74.44,74.44,0,0,1,26.58,17.24c4,4.06,7.93,7.26,14.32,6.17,5.22-.9,8.57,1.55,8.71,5.13.13,3.42-3.31,5.95-8.36,6Q629.35,569.73,599.39,569.7Zm-3.28-11.07V559c10.66,0,21.32.06,32-.07,1.46,0,2.9-1,4.35-1.56-.64-1.23-1-3-2-3.6-15.85-9.62-32.75-16-51.62-13.53-7.24.93-14.35,3.67-18.45,10.63-1,1.69-2.12,4.49-1.39,5.69s3.66,1.94,5.64,2C575.12,558.73,585.62,558.63,596.11,558.63Z"/><path class="a" d="M598.88,606.54l-32.82-5.81a8.4,8.4,0,0,1-1.44-.42c-4.82-1.79-7.56-5.21-6.19-8.27,2-4.52,6-3.65,9.49-2.49,17.2,5.69,34.71,5.79,52.35,3,4.07-.65,8-2.24,12-3.33,3.6-1,7.41-1.31,8.89,2.93s-1.74,6.52-5.22,7.71C624,603.92,611.72,605.77,598.88,606.54Z"/><path class="a" d="M846.75,452.26c2.18-12.52,7-21.48,16.91-27a63.45,63.45,0,0,1,11.51-4.76c3.87-1.25,8.18,1.1,8.74,4.48.72,4.35-2.07,6.07-5.72,6.6-11.55,1.68-18.22,8-19.71,19.77-.42,3.27-2,6.82-5.92,5.83C850.12,456.57,848.26,453.62,846.75,452.26Z"/><path class="a" d="M816.5,436.92l-12.34-3.13c-6.12-1.55-12.26-3-18.36-4.67-3.15-.84-5.82-2.62-5-6.27.83-4,4.16-5.15,7.75-4.45,5.38,1,10.65,2.66,16,3.89,4,.93,8.16,1.45,12.16,2.5,3.42.9,5.91,3.44,4.81,6.95C820.78,433.91,818,435.43,816.5,436.92Z"/><path class="a" d="M799.82,532.77c-11.47-5.91-22.53-11.48-33.39-17.43-1-.56-1.58-4.09-.83-5.24,1-1.47,4-3.18,5.24-2.64,11.11,5,22.06,10.35,32.88,16,1.05.55,1.65,3.82,1,5.23C804.07,530.26,801.81,531.21,799.82,532.77Z"/><path class="a" d="M807.73,459.63c-7.07-.85-15.52-1.69-23.9-3-3.69-.56-7.66-2.1-7-6.81s4.59-5.27,8.49-4.81c8.08,1,16.15,2.12,24.22,3.22a11.31,11.31,0,0,1,1.93.5c3.46,1.12,5.41,3.4,4.72,7.12C815.4,459.89,812.18,459.79,807.73,459.63Z"/><path class="a" d="M774.53,472.14c10.78,2.62,20.48,4.79,30.06,7.41,2.84.78,5.28,3.58,3.55,6.5-1.15,1.95-4.62,4-6.68,3.67-8.82-1.41-17.55-3.51-26.21-5.74-3.31-.85-6.49-3.15-5.53-7.05C770.2,475,773,473.58,774.53,472.14Z"/><path class="a" d="M692,702.86c-.93,1.16-2,3.76-3.71,4.27a7,7,0,0,1-6-1.78c-2.32-2.7-3.88-6.12-5.47-9.38-2.75-5.64-5.7-11.25-7.67-17.17-.66-2,1.4-4.89,2.22-7.37,2.27,1,5.62,1.32,6.64,3,4.82,8.08,9,16.54,13.38,24.89C691.75,700.06,691.7,701,692,702.86Z"/><path class="a" d="M766,610.39c-2.08-.85-3.63-1.16-4.78-2-6.93-5.16-13.87-10.32-20.59-15.75-2.42-2-5-4.69-2.51-8.11,2.72-3.69,6.37-2.43,9.31-.26,7.09,5.23,14.09,10.59,20.79,16.3,1.39,1.18,2,4.2,1.66,6.17C769.69,608.14,767.36,609.22,766,610.39Z"/><path class="a" d="M662,674.78c-.92,3.53-1.27,7.63-5.23,7.2-2.5-.27-5.59-3.38-6.74-6-2.12-4.76-3-10.06-4.41-15.14-.88-3.23-.41-6.05,3-7.5s6.06,0,7.26,3.15C658.12,662.53,660,668.69,662,674.78Z"/><path class="a" d="M787.89,563.85a39.29,39.29,0,0,1-4-1.55c-5-2.67-9.89-5.41-14.82-8.12-4.49-2.47-6.35-5.82-4.44-8.56,2.66-3.8,6.31-3.19,9.75-1.31a178.64,178.64,0,0,1,16.23,9.63c1.41,1,2.38,4.19,1.87,5.88S789.36,562.64,787.89,563.85Z"/><path class="a" d="M651.37,524.49c-1.06,1.46-1.84,3.64-3.15,4-1.82.56-5,.58-6-.55-5.21-6.4-10.06-13.12-14.62-20-.7-1.06.16-4.35,1.31-5.12a6.86,6.86,0,0,1,5.83-.27c2,.94,3.42,3.06,4.87,4.86,3.23,4,6.37,8.06,9.41,12.2A30.43,30.43,0,0,1,651.37,524.49Z"/><path class="a" d="M758.61,575.75c-2.21-.69-3.43-.83-4.38-1.41Q746,569.24,737.93,564c-2.8-1.83-4.37-4.39-2.43-7.59s4.82-3.25,7.83-1.58c5.79,3.23,11.75,6.23,17.2,10,1.7,1.17,2.9,4.57,2.57,6.68C762.82,573.19,760,574.53,758.61,575.75Z"/><path class="a" d="M800.62,600.45c-1.4,1.56-2.42,3.7-4,4.17-1.76.54-4.82.37-5.85-.8a221.05,221.05,0,0,1-14.47-18.27c-.84-1.18-.27-5,.72-5.5,1.82-.93,5-1.21,6.6-.16,2.95,2,5.21,5,7.61,7.77s4.45,5.34,6.55,8.11A51.78,51.78,0,0,1,800.62,600.45Z"/><path class="a" d="M683.72,653.9c-.94,1.1-2,3.62-3.57,3.9-2.1.4-5.62-.13-6.62-1.58a143.23,143.23,0,0,1-11-18.78c-.72-1.48.71-4.81,2.18-6.25.84-.82,4.69-.26,5.55.89,4.52,6.09,8.53,12.56,12.67,18.93A13,13,0,0,1,683.72,653.9Z"/><path class="a" d="M826.27,588.87c-2-.66-3.45-.81-4.48-1.53-5.15-3.63-10.27-7.32-15.25-11.18-2.48-1.92-3.83-5-1.35-7.28,1.64-1.49,5.68-2.43,7.32-1.43a140,140,0,0,1,16.74,12.4,5.77,5.77,0,0,1,1.25,5.23C829.87,586.72,827.64,587.73,826.27,588.87Z"/><path class="a" d="M725.54,689.95c0,4.76-3.61,7.18-7.17,5.27a11.45,11.45,0,0,1-3.69-3.26c-3.33-4.56-6.52-9.23-9.68-13.92-2.07-3.07-1.81-6.22,1-8.5s5.45-.33,7.22,2c3.83,5,7.45,10.2,11,15.38A12.65,12.65,0,0,1,725.54,689.95Z"/><path class="a" d="M832.4,557.33a26.81,26.81,0,0,1-4.06-1.41c-4.88-2.8-9.94-5.38-14.41-8.74-1.63-1.23-1.8-4.4-2.63-6.69,2.34-.77,5.24-2.81,6.92-2.08a106.6,106.6,0,0,1,16.8,9.38c1.37.92,2.14,4.2,1.67,6C836.27,555.33,833.71,556.31,832.4,557.33Z"/><path class="a" d="M783,640.27c-.67.81-1.69,2.95-3.35,3.73-1.46.69-4.51.58-5.34-.42a110.21,110.21,0,0,1-9.92-14.25c-.71-1.22.13-4.09,1.22-5.39.87-1,3.31-1.39,4.88-1.11C773.89,623.44,782.85,635.46,783,640.27Z"/><path class="a" d="M625.16,663.6c-1.68,1.85-3,4.5-5,5.23-3.1,1.13-5.93-.55-7-3.93-1.51-4.76-3.31-9.52-4-14.42a8.49,8.49,0,0,1,3.17-6.83c2.68-1.73,5.59.06,6.78,3.08C621.2,652,622.95,657.33,625.16,663.6Z"/><path class="a" d="M731.32,619.3c-.53-.12-1.86,0-2.41-.59C724,613.35,719.15,608,714.7,602.3c-.68-.87.35-4.14,1.55-5.11s4.41-1.23,5.33-.34A132.88,132.88,0,0,1,736,612.47C738.3,615.61,735.64,619.23,731.32,619.3Z"/><path class="a" d="M743.77,632.48c2.07,1.41,4.22,2.4,5.72,4,3.06,3.27,5.82,6.82,8.6,10.34,2.14,2.71,2.35,5.68-.34,8s-5.4,1.52-7.57-.81a106.85,106.85,0,0,1-10-11.75c-1.18-1.72-1.06-4.71-.65-7C739.72,634.29,742,633.61,743.77,632.48Z"/><path class="a" d="M564.3,510c-3.1,6.87-5.95,12.9-11.51,16.87-1.17.84-4.66.24-5.62-.91-1.21-1.45-1.85-4.58-1.09-6.22A67.61,67.61,0,0,1,553.84,507c1.1-1.43,4.21-2.62,5.77-2.08C561.51,505.56,562.74,508.15,564.3,510Z"/><path class="a" d="M702.16,625.72c1.84,1.05,3.5,1.6,4.6,2.7,5.54,5.52,11,11.15,16.38,16.8,2.56,2.67,4,5.78.59,8.65s-6.16,1-8.67-1.66c-5.22-5.6-10.64-11-15.59-16.86-1.27-1.49-1.68-4.3-1.36-6.32C698.32,627.79,700.65,626.89,702.16,625.72Z"/><path class="a" d="M534.9,510.64c-.76,2.09-1,3.69-1.82,4.81a206.52,206.52,0,0,1-13,16.25c-1.31,1.4-5,1.94-6.87,1.14-3-1.31-3.09-4.71-1.29-7.28,4.26-6.1,8.67-12.12,13.43-17.83,1-1.25,4-1.89,5.66-1.37S533.66,509.2,534.9,510.64Z"/><path class="a" d="M601.09,503.73c1.32-1.69,2.54-4.76,4.18-5,2.07-.31,5.85,1.13,6.51,2.77a56.72,56.72,0,0,1,3.61,15.26c.17,1.69-2.36,4.78-4.12,5.18s-5-1.48-5.73-3.16C603.59,514.28,602.66,509.35,601.09,503.73Z"/><path class="a" d="M677.16,526.37c-1.53,2-2.63,4.75-4.44,5.36-1.49.5-4.9-1.06-5.6-2.57A94.12,94.12,0,0,1,660.92,512c-.37-1.51,2-4.63,3.85-5.46,1.36-.62,5,.71,5.65,2.1C673,514.15,674.81,520,677.16,526.37Z"/><path class="a" d="M591.14,508.62c-.62,2.92-.61,6.21-2,8.65-1.2,2-4.32,4.42-6.19,4.12s-4.36-3.66-4.52-5.83a25.18,25.18,0,0,1,2-11.13c.65-1.58,4.43-3.42,5.72-2.83,2.41,1.11,4,3.92,6,6Z"/><path class="a" d="M606.27,272.81c0-3.83,0-7.66,0-11.48-.05-4.32,2.19-6.41,6.34-6.73q51-3.95,102-7.92c5.3-.42,10.61-1,15.85-1.85,4.51-.76,7.81.61,10.32,4.3,7.2,10.59,14.48,21.13,21.51,31.83,1,1.55.83,3.88,1.2,5.85-2.07-.49-4.49-.45-6.15-1.55-5.94-4-11.51-8.48-17.48-12.39a10.78,10.78,0,0,0-6.9-1.66c-20.86,3.24-41.66,6.87-62.5,10.19-18.23,2.9-36.51,5.54-54.76,8.33-8.31,1.27-9.76,0-9.32-8.41.15-2.82,0-5.66,0-8.49Z"/><path class="a" d="M673.32,339.44c6.45,0,18.09,7.94,20.29,14.88.54,1.69-.47,4.75-1.84,6A145.82,145.82,0,0,1,679.1,370c-4.33,3.14-4.13,5.57.67,7.88,4,1.95,8,4,12,6,3.26,1.58,4,4.29,3.42,7.51-2,11.55-15.94,21.21-27.28,18.76-9.28-2-14.2-9.09-17.68-17-6.36-14.45-5.05-28.67,3.42-41.95C658,344.41,663.73,339.1,673.32,339.44Z"/><path class="a" d="M677.39,419.19c7.15,0,14.3,0,21.45,0,1.64,0,3.61-.11,4.84.71,1.62,1.1,3.58,3,3.67,4.67s-1.7,3.81-3.26,4.83-3.8,1.09-5.75,1.1c-14,.09-27.93.06-41.9.06a13.93,13.93,0,0,1-3-.16c-3.43-.76-6.77-2.08-6.38-6.28s3.79-5,7.38-5c7.65,0,15.29,0,22.94,0Z"/><path class="a" d="M517.54,339.38c7.39-.36,11.85,4,16.13,8.5,7.66,8.05,7.63,8.81-.81,16-2.91,2.46-6.26,4.39-9.33,6.67-3.54,2.63-3.25,5.15.69,7.1,4.32,2.13,8.64,4.25,12.93,6.43s5.52,5.92,2.75,9.93a73.53,73.53,0,0,1-10.15,12.26c-7,6.43-18.63,6-25.62-.53-11.59-10.81-14.14-24.44-11.77-39.38a35.68,35.68,0,0,1,10.38-20.61C507.06,341.52,512,339.26,517.54,339.38Z"/><path class="a" d="M265.33,527.38a18,18,0,0,1-17.25,17.8c-9.42.16-18.1-8.29-18.13-17.63a18.09,18.09,0,0,1,18.19-18C257.24,509.61,265.28,517.95,265.33,527.38Z"/><path class="a" d="M178.94,509.52c9.24,0,17.17,8.24,17.21,17.82s-8.18,17.88-17.69,17.89c-9.34,0-17.73-8.63-17.6-18.13S169.3,509.5,178.94,509.52Z"/><path class="a" d="M109.56,545.19c-9.19,0-17.93-8.81-17.83-18s8.67-17.68,18.12-17.72c8.79,0,17.57,8.82,17.6,17.76C127.47,536.51,118.8,545.2,109.56,545.19Z"/></svg>