<svg xmlns="http://www.w3.org/2000/svg" viewBox="263.5 -4723.699 223.078 42.986"><defs><style>.a{fill:#fff;}</style></defs><g transform="translate(-690 -5334)"><path class="a" d="M0,26.231V4.8H5.765V20.466h8.4v5.765Z" transform="translate(953.5 611.517)"/><path class="a" d="M270.2,132.405v-4.261H264.94v4.261H259.3V116.74a5.615,5.615,0,0,1,5.64-5.64h5.138a5.752,5.752,0,0,1,5.765,5.765v15.666H270.2Zm0-15.666H264.94V122.5H270.2Z" transform="translate(712.121 505.342)"/><path class="a" d="M286.9,132.431H276.376v-5.389H286.9V124.41h-5.138A5.727,5.727,0,0,1,276,118.77v-2.005A5.752,5.752,0,0,1,281.765,111h9.9v5.389h-9.9v2.256H286.9a5.727,5.727,0,0,1,5.765,5.64v2.256a5.853,5.853,0,0,1-5.765,5.89" transform="translate(716.351 505.317)"/><rect class="a" width="5.765" height="21.431" transform="translate(1013.029 616.317)"/><path class="a" d="M345.6,132.405v-4.261H340.34v4.261H334.7V116.74a5.615,5.615,0,0,1,5.64-5.64h5.138a5.752,5.752,0,0,1,5.765,5.765v15.666H345.6Zm0-15.666H340.34V122.5H345.6Z" transform="translate(731.216 505.342)"/><path class="a" d="M119.587,26.231h-8.021L105.3,4.8h5.89l4.386,15.916L119.963,4.8h5.765Z" transform="translate(980.167 611.517)"/><path class="a" d="M380.029,132.405v-4.261h-5.264v4.261H369V116.74a5.615,5.615,0,0,1,5.64-5.64h5.138a5.752,5.752,0,0,1,5.765,5.765v15.666h-5.514Zm0-15.666h-5.264V122.5h5.264Z" transform="translate(739.903 505.342)"/><path class="a" d="M391.865,132.431a5.727,5.727,0,0,1-5.765-5.64V116.765A5.752,5.752,0,0,1,391.865,111h8.522v5.64h-8.522v10.026h8.522v5.765Z" transform="translate(744.233 505.317)"/><path class="a" d="M420.7,132.405v-4.261H415.44v4.261H409.8V116.74a5.615,5.615,0,0,1,5.64-5.64h5.138a5.752,5.752,0,0,1,5.765,5.765v15.666H420.7Zm0-15.666H415.44V122.5H420.7Z" transform="translate(750.235 505.342)"/><path class="a" d="M68.8,19.676l.125,13.41h1l.125-12.407L80.33,23.31l.251,12.908,1.128.125.125-13.034,8.271-2.882.125,10.653h1l.376-28.95L80.455,0l.125,16.167Z" transform="translate(970.923 610.301)"/><path class="a" d="M79.137,24.681l-.125,14.162-1,.125-.125-13.159L66.73,28.692l-.251,13.535H65.351L65.1,28.441l-8.271-2.882L56.7,38.216l-1.128-.251L55.2,3,66.981,6.008l-.125,15.039Z" transform="translate(967.479 611.061)"/><path class="a" d="M401,117.768h5.765v14.663H401Zm4.637-2.256h-4.386L403.506,111h5.765Z" transform="translate(748.007 505.317)"/></g></svg>