<svg xmlns="http://www.w3.org/2000/svg" viewBox="0 0 206.25 50.23"><defs><style>.a{isolation:isolate;}.logo_path{fill:#fff;}</style></defs><title>logo</title><g class="a"><g class="a"><path class="logo_path" d="M87,18.93c0-1.35-1.35-1.6-2.75-1.6s-2.7.25-2.7,1.6v.25a1.46,1.46,0,0,0,1,1.35l7,2.5c3.35,1.2,5,3,5,5.4v2.4c0,3.3-2.9,6.8-10.55,6.8s-10.45-3.5-10.45-6.8v-1c0-1,.35-1.35,1.35-1.35h4.6c1,0,1.35.4,1.35,1.35v.7c0,1.35,1.65,1.6,3.15,1.6s3.2-.25,3.2-1.6V30c0-.65-.4-1-2-1.55l-7.05-2.7a6.45,6.45,0,0,1-4-5.45v-1.4c0-3.3,2.4-7.1,10-7.1s10,3.8,10,7.1v.7c0,1-.35,1.4-1.4,1.4H88.3c-1,0-1.35-.4-1.35-1.4Z"/><path class="logo_path" d="M106.3,7.92c0,1-.35,1.45-1.4,1.45H99.75c-1,0-1.45-.4-1.45-1.45V3.77c0-1,.4-1.5,1.45-1.5h5.15c1,0,1.4.45,1.4,1.5Zm0,27.8c0,1-.35,1.5-1.4,1.5H99.75c-1,0-1.45-.45-1.45-1.5v-22c0-1.05.4-1.5,1.45-1.5h5.15c1,0,1.4.45,1.4,1.5Z"/><path class="logo_path" d="M119.8,19.63c0-4.75,3.9-7.8,11.45-7.8s11.45,3,11.45,7.8v10.2c0,4.75-3.9,7.8-11.45,7.8s-11.45-3.05-11.45-7.8Zm14.9.65c0-1.65-1.4-2.2-3.45-2.2s-3.45.55-3.45,2.2v8.85c0,1.7,1.4,2.25,3.45,2.25s3.45-.55,3.45-2.25Z"/><path class="logo_path" d="M162.45,12.22c1,0,1.35.4,1.45,1.45l.1.85a11.65,11.65,0,0,1,7.75-2.7c4.55,0,7.35,2.9,7.35,7v17c0,1-.4,1.5-1.45,1.5H172.6c-1,0-1.5-.45-1.5-1.5V20.83c0-1.55-.3-2.15-1.9-2.15a9.35,9.35,0,0,0-5,2V35.73c0,1-.35,1.5-1.4,1.5h-5.15c-1,0-1.45-.45-1.45-1.5V13.67c0-1,.4-1.45,1.45-1.45Z"/><path class="logo_path" d="M183.35,19.63c0-4.75,3.9-7.8,11.45-7.8s11.45,3,11.45,7.8v10.2c0,4.75-3.9,7.8-11.45,7.8s-11.45-3.05-11.45-7.8Zm14.9.65c0-1.65-1.4-2.2-3.45-2.2s-3.45.55-3.45,2.2v8.85c0,1.7,1.4,2.25,3.45,2.25s3.45-.55,3.45-2.25Z"/></g></g><circle class="logo_path" cx="21.26" cy="17.73" r="1.58"/><circle class="logo_path" cx="16.88" cy="17.73" r="1.58"/><circle class="logo_path" cx="12.49" cy="17.73" r="1.58"/><path class="logo_path" d="M48.25,44.86a27.41,27.41,0,0,1-3.72-1.48q.41-.32.81-.67A14.19,14.19,0,0,0,50.3,32a14.43,14.43,0,0,0-5.07-10.86,17.78,17.78,0,0,0-11.8-4.35h-.08a13.77,13.77,0,0,0,.12-1.8,14.19,14.19,0,0,0-5-10.71A17.48,17.48,0,0,0,16.87,0h0A17.78,17.78,0,0,0,5.07,4.36,14.43,14.43,0,0,0,0,15.24,14.19,14.19,0,0,0,5,25.95q.39.35.81.67a27.46,27.46,0,0,1-3.72,1.48,2.75,2.75,0,0,0,.78,5.39H3a88,88,0,0,0,13.84-2.14v.4a14.42,14.42,0,0,0,5,10.86,13.84,13.84,0,0,0,1.26,1l.1.07h0A29.21,29.21,0,0,0,33,48a87.54,87.54,0,0,0,14.28,2.24h.17a2.75,2.75,0,0,0,.78-5.39ZM16.61,28.56A85.5,85.5,0,0,1,2.83,30.73S8.34,29.09,11,26.42a13.93,13.93,0,0,1-4.21-2.53A11.35,11.35,0,0,1,6.89,6.42a15.1,15.1,0,0,1,10-3.66,14.78,14.78,0,0,1,9.79,3.57A11.35,11.35,0,0,1,30.52,17a17.15,17.15,0,0,0-8.71,4,14.51,14.51,0,0,0-4.56,7.38ZM33.69,45.34a26.57,26.57,0,0,1-8.83-3.87l-.11-.08a10.53,10.53,0,0,1-1-.82,11.37,11.37,0,0,1-.11-17.47,14.78,14.78,0,0,1,9.8-3.58,15.1,15.1,0,0,1,10,3.66,11.36,11.36,0,0,1,.11,17.47,14,14,0,0,1-4.21,2.53c2.65,2.67,8.16,4.31,8.16,4.31a85.5,85.5,0,0,1-13.78-2.16Z"/><circle class="logo_path" cx="29.03" cy="34.5" r="1.58"/><circle class="logo_path" cx="33.41" cy="34.5" r="1.58"/><circle class="logo_path" cx="37.8" cy="34.5" r="1.58"/></svg>